<svg width="93" height="93" viewBox="0 0 93 93" fill="none" xmlns="http://www.w3.org/2000/svg">
<g filter="url(#filter0_d_16_4477)">
<rect x="15.3999" y="11.4" width="62" height="62" rx="31" fill="#C997F9" shape-rendering="crispEdges"/>
<rect x="13.3999" y="9.40002" width="66" height="66" rx="33" stroke="white" stroke-width="4" shape-rendering="crispEdges"/>
<path fill-rule="evenodd" clip-rule="evenodd" d="M55.6365 25.9728C55.8052 25.56 56.1251 25.2273 56.5309 25.0424C56.9367 24.8576 57.3978 24.8346 57.82 24.9783C58.2421 25.1219 58.5935 25.4212 58.8024 25.8152C59.0113 26.2092 59.0619 26.668 58.944 27.0981L58.8775 27.2906L54.31 38.5256L55.4597 38.8318C57.2972 39.3236 58.8267 40.8163 59.1172 42.8533C59.3657 44.6033 59.5984 47.2633 59.2782 50.0038C58.9597 52.7198 58.0707 55.7403 55.871 57.9593C55.0625 58.7748 53.9022 58.9043 53.1182 58.9183C52.224 58.9323 51.1932 58.7958 50.1345 58.5858C48.0065 58.1623 45.455 57.3783 43.04 56.5453L42.3155 56.2916L40.8927 55.7771L39.5277 55.2678L38.2432 54.7726L36.5317 54.0936L35.0932 53.5073L33.6635 52.9036C33.3829 52.785 33.1381 52.5953 32.9533 52.3532C32.7686 52.1111 32.6502 51.825 32.6099 51.5231C32.5696 51.2212 32.6088 50.914 32.7236 50.6319C32.8384 50.3498 33.0248 50.1025 33.2645 49.9146C35.6742 48.0246 37.937 45.8511 39.8462 43.8438L40.772 42.8568L41.2095 42.3773L42.0355 41.4551L42.4205 41.0141L43.46 39.7978L44.0497 39.0873C44.6672 38.3297 45.478 37.753 46.3963 37.4182C47.3145 37.0833 48.3062 37.0028 49.2665 37.1851L49.6147 37.2656L50.9045 37.6103L55.6365 25.9728ZM43.775 44.7591C41.859 46.8795 39.8264 48.8916 37.6867 50.7861C38.6935 51.1932 39.7045 51.5899 40.7195 51.9761C41.6525 51.311 42.4919 50.5234 43.215 49.6346C43.5216 49.27 43.8068 48.8878 44.069 48.4901L44.3175 48.0841C44.5478 47.6873 44.9246 47.3969 45.367 47.2752C45.8093 47.1536 46.2817 47.2105 46.6825 47.4337C47.0832 47.6569 47.3803 48.0286 47.5098 48.4687C47.6393 48.9088 47.5908 49.3821 47.3747 49.7868C46.9652 50.5218 46.4525 51.2113 45.9187 51.8588C45.4862 52.3847 45.0234 52.8849 44.5327 53.3568C45.3412 53.6333 46.1497 53.8958 46.9337 54.1373C47.5865 53.6876 48.3512 52.7636 49.0442 51.7136C49.323 51.2936 49.5867 50.8619 49.8352 50.4186L50.1922 49.7466C50.398 49.3305 50.7607 49.0132 51.2005 48.8645C51.6403 48.7158 52.1211 48.748 52.5372 48.9538C52.9533 49.1596 53.2706 49.5224 53.4192 49.9621C53.5679 50.4019 53.5358 50.8827 53.33 51.2988C52.9292 52.1073 52.462 52.8896 51.965 53.6421C51.6201 54.1662 51.2498 54.6731 50.8555 55.1611L51.5922 55.3046C52.2257 55.4218 52.8942 55.5041 53.498 55.3798C54.8385 53.9536 55.5332 51.8833 55.801 49.5961C55.8628 49.0641 55.9025 48.5367 55.92 48.0141L43.775 44.7591ZM48.7082 40.6466C48.3535 40.5581 47.9809 40.5734 47.6346 40.6907C47.2884 40.8079 46.9831 41.0222 46.7552 41.3081L46.33 41.8208L55.7765 44.3513L55.6942 43.6653L55.6522 43.3468C55.5875 42.9041 55.2742 42.4876 54.7579 42.2793L54.555 42.2128L48.7082 40.6466ZM35.1387 34.9031L35.2507 35.1481C35.7279 36.1352 36.4795 36.9639 37.4155 37.5351L37.5905 37.6366C37.6086 37.647 37.6237 37.662 37.6342 37.6801C37.6448 37.6983 37.6503 37.7189 37.6503 37.7398C37.6503 37.7608 37.6448 37.7813 37.6342 37.7995C37.6237 37.8176 37.6086 37.8326 37.5905 37.8431L37.4155 37.9446C36.4796 38.5169 35.7286 39.3468 35.2525 40.3351L35.1405 40.5783C35.1307 40.6004 35.1148 40.6192 35.0946 40.6324C35.0744 40.6455 35.0508 40.6526 35.0267 40.6526C35.0026 40.6526 34.979 40.6455 34.9588 40.6324C34.9386 40.6192 34.9227 40.6004 34.913 40.5783L34.801 40.3333C34.3237 39.3461 33.5722 38.5174 32.6362 37.9463L32.4612 37.8448C32.443 37.8344 32.4279 37.8194 32.4174 37.8012C32.4069 37.7831 32.4014 37.7625 32.4014 37.7416C32.4014 37.7206 32.4069 37.7 32.4174 37.6819C32.4279 37.6638 32.443 37.6487 32.4612 37.6383L32.6362 37.5368C33.5714 36.9642 34.3217 36.1343 34.7975 35.1463L34.9095 34.9031C34.9192 34.881 34.9351 34.8622 34.9553 34.849C34.9755 34.8358 34.9991 34.8288 35.0232 34.8288C35.0473 34.8288 35.0709 34.8358 35.0911 34.849C35.1113 34.8622 35.129 34.881 35.1387 34.9031ZM40.0947 26.3998C40.1647 26.2423 40.3852 26.2423 40.4552 26.3998L40.6337 26.7883C41.3947 28.3591 42.5915 29.678 44.0812 30.5876L44.356 30.7503C44.3855 30.7666 44.4101 30.7906 44.4273 30.8197C44.4444 30.8488 44.4535 30.8819 44.4535 30.9157C44.4535 30.9494 44.4444 30.9826 44.4273 31.0117C44.4101 31.0408 44.3855 31.0647 44.356 31.0811L44.0795 31.2421C42.5894 32.1521 41.3927 33.4716 40.632 35.0431L40.457 35.4316C40.4415 35.4668 40.4162 35.4967 40.384 35.5177C40.3519 35.5387 40.3143 35.5499 40.2758 35.5499C40.2374 35.5499 40.1998 35.5387 40.1676 35.5177C40.1355 35.4967 40.1101 35.4668 40.0947 35.4316L39.9162 35.0431C39.1555 33.4716 37.9587 32.1521 36.4687 31.2421L36.1922 31.0811C36.1627 31.0647 36.138 31.0408 36.1209 31.0117C36.1037 30.9826 36.0947 30.9494 36.0947 30.9157C36.0947 30.8819 36.1037 30.8488 36.1209 30.8197C36.138 30.7906 36.1627 30.7666 36.1922 30.7503L36.4705 30.5876C37.9602 29.678 39.1569 28.3591 39.918 26.7883L40.093 26.3998H40.0947Z" fill="white"/>
</g>
<defs>
<filter id="filter0_d_16_4477" x="-9.72748e-05" y="2.47955e-05" width="92.8" height="92.8" filterUnits="userSpaceOnUse" color-interpolation-filters="sRGB">
<feFlood flood-opacity="0" result="BackgroundImageFix"/>
<feColorMatrix in="SourceAlpha" type="matrix" values="0 0 0 0 0 0 0 0 0 0 0 0 0 0 0 0 0 0 127 0" result="hardAlpha"/>
<feOffset dy="4"/>
<feGaussianBlur stdDeviation="5.7"/>
<feComposite in2="hardAlpha" operator="out"/>
<feColorMatrix type="matrix" values="0 0 0 0 0.531438 0 0 0 0 0.531438 0 0 0 0 0.531438 0 0 0 0.25 0"/>
<feBlend mode="normal" in2="BackgroundImageFix" result="effect1_dropShadow_16_4477"/>
<feBlend mode="normal" in="SourceGraphic" in2="effect1_dropShadow_16_4477" result="shape"/>
</filter>
</defs>
</svg>
