<svg width="93" height="93" viewBox="0 0 93 93" fill="none" xmlns="http://www.w3.org/2000/svg">
<g filter="url(#filter0_d_16_4248)">
<rect x="15.3999" y="11.4" width="62" height="62" rx="31" fill="#97C0F9" shape-rendering="crispEdges"/>
<rect x="13.3999" y="9.40002" width="66" height="66" rx="33" stroke="white" stroke-width="4" shape-rendering="crispEdges"/>
<path d="M49.1125 56.68C48.6575 56.8725 48.1675 57.0475 47.6425 57.2225L44.8775 58.1325C37.93 60.3725 34.2725 58.5 32.015 51.5525L29.775 44.64C27.535 37.6925 29.39 34.0175 36.3375 31.7775L39.0325 30.885C38.7 31.725 38.42 32.6875 38.1575 33.7725L36.4425 41.105C34.5175 49.3475 37.335 53.8975 45.5775 55.8575L48.5175 56.5575C48.71 56.61 48.92 56.645 49.1125 56.68Z" fill="white"/>
<path d="M55.4475 27.0175L52.525 26.335C46.68 24.9525 43.1975 26.09 41.15 30.325C40.625 31.3925 40.205 32.6875 39.855 34.175L38.14 41.5075C36.425 48.8225 38.6825 52.4275 45.98 54.16L48.92 54.86C49.935 55.105 50.88 55.2625 51.755 55.3325C57.215 55.8575 60.12 53.3025 61.59 46.985L63.305 39.67C65.02 32.355 62.78 28.7325 55.4475 27.0175Z" fill="white"/>
</g>
<defs>
<filter id="filter0_d_16_4248" x="-9.72748e-05" y="2.47955e-05" width="92.8" height="92.8" filterUnits="userSpaceOnUse" color-interpolation-filters="sRGB">
<feFlood flood-opacity="0" result="BackgroundImageFix"/>
<feColorMatrix in="SourceAlpha" type="matrix" values="0 0 0 0 0 0 0 0 0 0 0 0 0 0 0 0 0 0 127 0" result="hardAlpha"/>
<feOffset dy="4"/>
<feGaussianBlur stdDeviation="5.7"/>
<feComposite in2="hardAlpha" operator="out"/>
<feColorMatrix type="matrix" values="0 0 0 0 0.531438 0 0 0 0 0.531438 0 0 0 0 0.531438 0 0 0 0.25 0"/>
<feBlend mode="normal" in2="BackgroundImageFix" result="effect1_dropShadow_16_4248"/>
<feBlend mode="normal" in="SourceGraphic" in2="effect1_dropShadow_16_4248" result="shape"/>
</filter>
</defs>
</svg>
