<svg width="152" height="57" viewBox="0 0 152 57" fill="none" xmlns="http://www.w3.org/2000/svg">
<path d="M18.3484 3.04517C17.2238 4.12898 16.0011 5.44114 15.0736 6.82775C13.4281 9.28795 11.8464 12.0133 10.5461 14.6904C9.66762 16.4989 8.59014 19.1981 8.08264 21.1334C7.4073 23.7089 7.05277 25.4923 6.91308 28.2157C6.71633 32.0525 7.50039 35.8162 8.98967 39.2321C11.1808 44.2576 16.0056 47.935 20.6818 50.7861C24.34 53.0163 28.9189 54.0899 32.8957 54.7704L33.1017 53.6788C29.1615 53.0054 24.9206 51.9254 21.4141 49.7848C16.9033 47.0307 12.5574 43.4686 10.1199 38.7405C8.63567 35.8625 7.82666 32.5603 7.75324 29.2374C7.68894 26.3264 8.28276 23.2929 8.89374 20.5223C9.39609 18.2447 10.1266 16.4106 11.0663 14.4488C12.2577 11.9614 13.6151 9.50114 15.115 7.20879C16.0859 5.72494 17.4819 4.29372 18.6135 3.20319L18.3484 3.04517Z" fill="#7A7A7A"/>
<path d="M25.46 52.8561C25.46 52.8561 22.686 52.4871 20.6443 53.0999C17.4028 54.0728 17.4607 56.1857 17.4607 56.1857C17.4607 56.1857 18.9343 56.7777 21.7272 55.9615C24.9991 55.0054 25.46 52.8561 25.46 52.8561Z" fill="#7A7A7A"/>
<path d="M20.4436 50.57C20.4436 50.57 18.0439 49.9081 15.9474 50.2938C12.318 50.9616 12.4411 52.9343 12.4411 52.9343C12.4411 52.9343 13.9243 53.6533 16.828 53.101C20.1766 52.464 20.4436 50.57 20.4436 50.57Z" fill="#7A7A7A"/>
<path d="M16.5636 47.9197C16.5636 47.9197 14.1323 46.4421 12.0058 46.2898C8.32443 46.0263 7.5192 48.2877 7.5192 48.2877C7.5192 48.2877 9.1074 49.6319 12.0572 49.8252C15.4588 50.0481 16.5636 47.9197 16.5636 47.9197Z" fill="#7A7A7A"/>
<path d="M11.9475 43.5976C11.9475 43.5976 9.81179 42.0134 7.21338 41.6892C3.82237 41.266 2.65334 43.4768 2.61779 43.5332C2.61779 43.5332 4.22885 44.963 7.10706 45.2068C10.9677 45.534 11.9475 43.5976 11.9475 43.5976Z" fill="#7A7A7A"/>
<path d="M9.46835 39.947C9.46835 39.947 7.34041 37.684 4.62648 36.9174C1.99001 36.1719 0.391395 37.4845 0.354252 37.5315C0.354252 37.5315 2.00524 39.5968 4.49442 40.287C7.87644 41.2249 9.46835 39.947 9.46835 39.947Z" fill="#7A7A7A"/>
<path d="M8.31465 36.5634C7.27092 35.8776 6.79992 33.5963 5.1926 31.9611C2.95028 29.6798 0.0397337 30.387 0 30.4193C0 30.4193 0.885421 33.5979 3.46174 35.1592C6.19973 36.8184 8.31465 36.5634 8.31465 36.5634Z" fill="#7A7A7A"/>
<path d="M7.10626 31.156C7.10626 31.156 6.69747 28.3296 5.58128 26.3254C4.02419 23.5295 1.10388 23.4417 1.057 23.462C1.057 23.462 1.16159 26.7267 3.23169 28.9174C5.43175 31.2456 7.10626 31.156 7.10626 31.156Z" fill="#7A7A7A"/>
<path d="M7.37045 25.6771C7.37045 25.6771 7.51629 23.2181 6.83634 21.0267C5.81154 17.7238 3.06167 17.4712 3.01241 17.485C3.01241 17.485 2.66472 20.7728 4.41668 23.2262C6.27857 25.8337 7.37045 25.6771 7.37045 25.6771Z" fill="#7A7A7A"/>
<path d="M8.6845 19.6135C8.6845 19.6135 9.22185 17.3177 8.70687 15.0817C7.99213 11.9785 5.64096 11.0289 5.59038 11.0359C5.59038 11.0359 3.87365 13.2409 5.74672 17.0054C6.88294 19.289 8.6845 19.6135 8.6845 19.6135Z" fill="#7A7A7A"/>
<path d="M10.8049 14.4443C10.8049 14.4443 11.7932 12.1089 11.776 9.81454C11.7598 7.66054 10.511 5.53095 10.2851 5.35484C10.2851 5.35484 8.24711 6.71749 8.9883 10.4373C9.48683 12.9391 10.8049 14.4443 10.8049 14.4443Z" fill="#7A7A7A"/>
<path d="M13.6264 9.31984C13.6264 9.31984 14.9408 7.30672 14.946 4.87011C14.9499 2.85099 14.223 0.785758 13.7614 0.319685C13.7614 0.319685 11.8815 2.00682 12.3143 5.35889C12.641 7.88888 13.3951 8.98723 13.6264 9.31984Z" fill="#7A7A7A"/>
<path d="M15.7619 6.10545C15.7619 6.10545 18.8671 5.67308 20.2434 4.5105C21.7839 3.20917 23.0862 0.744503 23.1075 0.0882686C23.1075 0.0882686 20.1956 -0.622658 18.0583 1.99068C16.4452 3.96306 15.8446 5.7088 15.7619 6.10545Z" fill="#7A7A7A"/>
<path d="M13.0197 10.4349C13.0197 10.4349 14.1903 8.44321 16.6475 7.54868C18.5416 6.85921 20.1005 6.91255 21.1647 7.30578C21.1647 7.30578 20.0132 9.47922 17.2066 10.2457C14.7507 10.9164 13.414 10.526 13.0197 10.4349Z" fill="#7A7A7A"/>
<path d="M10.6737 14.9653C10.6737 14.9653 11.7861 13.0567 14.2434 12.1622C16.1375 11.4728 17.1385 11.6609 18.2027 12.0541C18.2027 12.0541 17.3353 14.0865 14.5287 14.8529C12.0727 15.5236 11.0679 15.0564 10.6737 14.9653Z" fill="#7A7A7A"/>
<path d="M8.63129 20.695C8.63129 20.695 9.58315 18.4165 11.7806 16.9976C14.0322 15.5436 15.3679 15.8128 16.4831 16.0197C16.2379 16.58 15.2411 18.911 13.1381 19.9288C10.8462 21.0381 9.03518 20.7178 8.63129 20.695Z" fill="#7A7A7A"/>
<path d="M7.68967 25.6304C7.68967 25.6304 8.4764 23.2894 10.5667 21.7166C12.7087 20.1049 14.06 20.2776 15.1871 20.4041C14.9825 20.9805 14.1548 23.3772 12.13 24.5432C9.92323 25.8139 8.09414 25.6242 7.68967 25.6304Z" fill="#7A7A7A"/>
<path d="M7.73605 31.29C8.51474 29.8191 8.81688 28.3322 10.1218 26.6752C11.7296 24.6337 13.4629 24.8885 14.5936 24.8026C14.2281 25.9287 13.6939 27.7024 12.2127 29.2289C10.4385 31.0572 8.13227 31.2086 7.73605 31.29Z" fill="#7A7A7A"/>
<path d="M8.75398 36.3327C9.36349 34.7836 9.57755 33.6222 10.6891 31.8292C12.0587 29.6202 13.7358 29.6738 14.8497 29.4617C14.6123 30.6218 14.1758 32.3715 12.8745 34.0546C11.3158 36.0705 9.13851 36.2074 8.75398 36.3327Z" fill="#7A7A7A"/>
<path d="M10.567 40.1767C11.5036 37.9573 11.2615 37.535 12.2308 35.6608C13.2717 33.6479 14.9902 33.3952 16.0835 33.0942C15.9397 34.2697 15.697 35.8684 14.5218 37.6423C13.2685 39.5339 11.6309 39.6076 10.567 40.1767Z" fill="#7A7A7A"/>
<path d="M13.3808 43.7607C13.8819 41.8549 13.5476 40.7789 14.0718 39.3982C14.9291 37.1399 16.1072 36.8412 17.2005 36.5403C16.7627 39.2427 16.97 39.2183 16.2672 40.9411C15.5834 42.6176 14.3285 43.0482 13.3808 43.7607Z" fill="#7A7A7A"/>
<path d="M16.5184 46.6389C16.6487 44.672 16.0771 44.178 16.3297 42.7224C16.7429 40.3417 17.8427 39.8241 18.8589 39.3204C19.0006 40.8447 19.3547 41.7651 18.8014 43.5419C18.4107 44.7966 17.3135 45.7588 16.5184 46.6389Z" fill="#7A7A7A"/>
<path d="M21.0074 42.0309C21.0074 42.0309 22.2519 43.6626 22.3105 45.7976C22.3936 48.8227 20.8993 49.5416 20.8993 49.5416C20.8993 49.5416 19.7676 48.3596 19.3792 45.6247C18.9643 42.7033 21.0074 42.0309 21.0074 42.0309Z" fill="#7A7A7A"/>
<path d="M24.8865 44.4431C24.8865 44.4431 26.1357 46.097 26.3017 48.2265C26.5144 50.9555 25.1663 51.8854 25.1663 51.8854C25.1663 51.8854 23.9785 50.5505 23.5405 48.2968C22.8718 44.8555 24.8865 44.4431 24.8865 44.4431Z" fill="#7A7A7A"/>
<path d="M133.652 3.04416C134.777 4.12796 135.999 5.44012 136.927 6.82672C138.572 9.2869 140.154 12.0122 141.454 14.6893C142.333 16.4978 143.41 19.197 143.918 21.1322C144.593 23.7077 144.947 25.4911 145.087 28.2145C145.284 32.0513 144.5 35.8149 143.011 39.2308C140.82 44.2563 135.995 47.9336 131.319 50.7847C127.66 53.0149 123.081 54.0886 119.105 54.769L118.901 53.6786C122.842 53.0044 127.083 51.9247 130.589 49.7839C135.1 47.0303 139.445 43.4683 141.884 38.7397C143.368 35.8616 144.177 32.5591 144.25 29.2365C144.314 26.3256 143.721 23.2921 143.11 20.5215C142.607 18.2439 141.877 16.4099 140.937 14.4481C139.746 11.9607 138.388 9.50048 136.888 7.20815C135.917 5.7243 134.521 4.29309 133.39 3.20257L133.652 3.04416Z" fill="#7A7A7A"/>
<path d="M126.546 52.8562C126.546 52.8562 129.32 52.4871 131.362 53.0999C134.603 54.0728 134.545 56.1857 134.545 56.1857C134.545 56.1857 133.072 56.7777 130.279 55.9615C127.007 55.0054 126.546 52.8562 126.546 52.8562Z" fill="#7A7A7A"/>
<path d="M131.556 50.5687C131.556 50.5687 133.956 49.9067 136.052 50.2925C139.682 50.9603 139.558 52.9329 139.558 52.9329C139.558 52.9329 138.075 53.652 135.172 53.0997C131.823 52.4627 131.556 50.5687 131.556 50.5687Z" fill="#7A7A7A"/>
<path d="M135.442 47.9196C135.442 47.9196 137.874 46.442 140 46.2898C143.681 46.0262 144.487 48.2876 144.487 48.2876C144.487 48.2876 142.898 49.6318 139.949 49.8251C136.547 50.048 135.442 47.9196 135.442 47.9196Z" fill="#7A7A7A"/>
<path d="M140.055 43.5969C140.055 43.5969 142.191 42.0126 144.79 41.6884C148.181 41.2653 149.35 43.476 149.385 43.5324C149.385 43.5324 147.774 44.9623 144.896 45.2061C141.035 45.5332 140.055 43.5969 140.055 43.5969Z" fill="#7A7A7A"/>
<path d="M142.535 39.9462C142.535 39.9462 144.663 37.6833 147.376 36.9166C150.013 36.1717 151.612 37.4839 151.649 37.5311C151.649 37.5311 149.998 39.5964 147.509 40.2866C144.127 41.2245 142.535 39.9462 142.535 39.9462Z" fill="#7A7A7A"/>
<path d="M143.686 36.5625C144.729 35.8767 145.2 33.5955 146.808 31.9601C149.05 29.6788 151.96 30.3861 152 30.4182C152 30.4182 151.115 33.5968 148.538 35.1581C145.8 36.8172 143.686 36.5625 143.686 36.5625Z" fill="#7A7A7A"/>
<path d="M144.898 31.1553C144.898 31.1553 145.307 28.3289 146.423 26.3247C147.98 23.5288 150.9 23.441 150.947 23.4613C150.947 23.4613 150.843 26.726 148.773 28.9167C146.573 31.2449 144.898 31.1553 144.898 31.1553Z" fill="#7A7A7A"/>
<path d="M144.633 25.6766C144.633 25.6766 144.487 23.2177 145.167 21.0262C146.192 17.7234 148.942 17.4708 148.991 17.4846C148.991 17.4846 149.339 20.7724 147.587 23.2258C145.725 25.8332 144.633 25.6766 144.633 25.6766Z" fill="#7A7A7A"/>
<path d="M143.32 19.6129C143.32 19.6129 142.783 17.3171 143.298 15.0812C144.012 11.978 146.363 11.0283 146.414 11.0354C146.414 11.0354 148.131 13.2404 146.258 17.0048C145.122 19.2884 143.32 19.6129 143.32 19.6129Z" fill="#7A7A7A"/>
<path d="M141.194 14.4426C141.194 14.4426 140.206 12.1073 140.223 9.81291C140.239 7.65894 141.488 5.52936 141.714 5.35325C141.714 5.35325 143.752 6.71589 143.011 10.4357C142.512 12.9375 141.194 14.4426 141.194 14.4426Z" fill="#7A7A7A"/>
<path d="M138.376 9.31915C138.376 9.31915 137.062 7.30604 137.056 4.86945C137.052 2.84991 137.779 0.784701 138.241 0.318709C138.241 0.318709 140.121 2.00583 139.688 5.35788C139.361 7.88785 138.607 8.98653 138.376 9.31915Z" fill="#7A7A7A"/>
<path d="M136.243 6.1054C136.243 6.1054 133.138 5.67304 131.762 4.51047C130.221 3.20915 128.919 0.744497 128.898 0.0882678C128.898 0.0882678 131.81 -0.622654 133.947 1.99067C135.56 3.96304 136.161 5.70876 136.243 6.1054Z" fill="#7A7A7A"/>
<path d="M138.986 10.435C138.986 10.435 137.815 8.4433 135.358 7.54877C133.464 6.8593 131.905 6.91264 130.841 7.30586C130.841 7.30586 131.992 9.47929 134.799 10.2458C137.255 10.9165 138.591 10.5261 138.986 10.435Z" fill="#7A7A7A"/>
<path d="M141.325 14.9638C141.325 14.9638 140.213 13.0552 137.755 12.1608C135.861 11.4713 134.86 11.6594 133.796 12.0527C133.796 12.0527 134.664 14.085 137.47 14.8514C139.926 15.5221 140.931 15.0549 141.325 14.9638Z" fill="#7A7A7A"/>
<path d="M143.374 20.6951C143.374 20.6951 142.422 18.4166 140.225 16.9978C137.973 15.5438 136.637 15.813 135.522 16.0198C135.767 16.5801 136.764 18.9111 138.867 19.9289C141.159 21.0382 142.97 20.7179 143.374 20.6951Z" fill="#7A7A7A"/>
<path d="M144.311 25.6292C144.311 25.6292 143.524 23.2882 141.434 21.7154C139.292 20.1037 137.94 20.2765 136.813 20.4029C137.018 20.9793 137.845 23.376 139.87 24.542C142.077 25.8127 143.906 25.623 144.311 25.6292Z" fill="#7A7A7A"/>
<path d="M144.263 31.2887C143.484 29.8179 143.182 28.3309 141.877 26.6739C140.269 24.6325 138.536 24.8873 137.405 24.8014C137.771 25.9275 138.305 27.7011 139.786 29.2276C141.56 31.0559 143.867 31.2073 144.263 31.2887Z" fill="#7A7A7A"/>
<path d="M143.251 36.3321C142.642 34.7831 142.428 33.6217 141.316 31.8286C139.946 29.6197 138.269 29.6733 137.155 29.4612C137.393 30.6213 137.829 32.371 139.131 34.0541C140.689 36.07 142.867 36.2068 143.251 36.3321Z" fill="#7A7A7A"/>
<path d="M141.436 40.1759C140.5 37.9565 140.742 37.5342 139.772 35.66C138.731 33.6472 137.013 33.3944 135.92 33.0935C136.063 34.269 136.306 35.8676 137.481 37.6415C138.735 39.5331 140.372 39.6068 141.436 40.1759Z" fill="#7A7A7A"/>
<path d="M138.623 43.7603C138.122 41.8545 138.456 40.7785 137.932 39.3978C137.075 37.1396 135.897 36.8409 134.803 36.54C135.241 39.2423 135.034 39.2179 135.737 40.9407C136.42 42.6172 137.675 43.0478 138.623 43.7603Z" fill="#7A7A7A"/>
<path d="M135.481 46.6374C135.351 44.6706 135.922 44.1766 135.67 42.721C135.257 40.3404 134.157 39.8227 133.141 39.319C132.999 40.8433 132.645 41.7637 133.198 43.5405C133.589 44.7952 134.686 45.7574 135.481 46.6374Z" fill="#7A7A7A"/>
<path d="M130.996 42.0304C130.996 42.0304 129.751 43.662 129.693 45.7971C129.609 48.8222 131.104 49.5411 131.104 49.5411C131.104 49.5411 132.236 48.359 132.624 45.6241C133.039 42.7028 130.996 42.0304 130.996 42.0304Z" fill="#7A7A7A"/>
<path d="M127.115 44.4424C127.115 44.4424 125.866 46.0963 125.7 48.2258C125.488 50.9549 126.836 51.8848 126.836 51.8848C126.836 51.8848 128.023 50.5498 128.461 48.2962C129.13 44.8549 127.115 44.4424 127.115 44.4424Z" fill="#7A7A7A"/>
<path d="M98.6197 11.1563C98.4648 11.1563 98.298 11.1384 98.1847 11.1205V10.471C98.2622 10.4829 98.3635 10.4948 98.4648 10.4948C99.162 10.4948 99.5255 10.2684 99.7996 9.51161L99.9486 9.11236L97.6187 2.87341H98.4648L100.342 8.28408H100.366L102.249 2.87341H103.083L100.598 9.56524C100.187 10.6676 99.6804 11.1563 98.6197 11.1563Z" fill="black" fill-opacity="0.65"/>
<path d="M94.7166 9.18381C93.7393 9.18381 92.9587 8.63559 92.6012 7.75964H92.5833V9.07059H91.7908V0.471924H92.5833V4.16643H92.6012C92.9528 3.30835 93.7512 2.76013 94.7225 2.76013C96.2719 2.76013 97.3385 4.02938 97.3385 5.96601V5.97197C97.3385 7.90861 96.2778 9.18381 94.7166 9.18381ZM94.5676 8.48066C95.7594 8.48066 96.5281 7.5034 96.5281 5.97197V5.96601C96.5281 4.4465 95.7594 3.46328 94.5676 3.46328C93.4116 3.46328 92.5773 4.47629 92.5773 5.96601V5.97197C92.5773 7.46765 93.3997 8.48066 94.5676 8.48066Z" fill="black" fill-opacity="0.65"/>
<path d="M84.8966 9.18381C83.3353 9.18381 82.2747 7.90861 82.2747 5.97197V5.96601C82.2747 4.02938 83.3413 2.76013 84.8906 2.76013C85.8619 2.76013 86.6604 3.30835 87.012 4.16643H87.0298V0.471924H87.8224V9.07059H87.0298V7.78347H87.006C86.6485 8.63559 85.8738 9.18381 84.8966 9.18381ZM85.0455 8.48066C86.2135 8.48066 87.0358 7.46765 87.0358 5.97197V5.96601C87.0358 4.47629 86.2016 3.46328 85.0455 3.46328C83.8538 3.46328 83.0851 4.4465 83.0851 5.96601V5.97197C83.0851 7.5034 83.8538 8.48066 85.0455 8.48066Z" fill="black" fill-opacity="0.65"/>
<path d="M78.8959 9.18393C77.156 9.18393 76.0774 7.95044 76.0774 5.98997V5.98401C76.0774 4.04141 77.1738 2.76025 78.8304 2.76025C80.487 2.76025 81.5298 3.9997 81.5298 5.85291V6.16278H76.8759C76.8997 7.64058 77.6922 8.48078 78.9138 8.48078C79.8255 8.48078 80.4572 8.02195 80.6598 7.34859L80.6717 7.29496H81.4523L81.4404 7.35455C81.2259 8.41523 80.2367 9.18393 78.8959 9.18393ZM78.8244 3.4634C77.7697 3.4634 76.9831 4.22018 76.8878 5.53709H80.7372C80.6479 4.18443 79.8851 3.4634 78.8244 3.4634Z" fill="black" fill-opacity="0.65"/>
<path d="M74.9808 9.18388C73.9618 9.18388 73.4613 8.70121 73.4613 7.61669V3.53486H72.5496V2.87342H73.4613V1.19897H74.2717V2.87342H75.4992V3.53486H74.2717V7.60477C74.2717 8.29004 74.5637 8.52244 75.1417 8.52244C75.2847 8.52244 75.4098 8.50456 75.4992 8.49265V9.13621C75.3741 9.16004 75.1715 9.18388 74.9808 9.18388Z" fill="black" fill-opacity="0.65"/>
<path d="M69.731 9.18393C68.3247 9.18393 67.4249 8.43311 67.3058 7.33668L67.2998 7.28305H68.0864L68.0983 7.33668C68.2234 8.05174 68.8014 8.51653 69.737 8.51653C70.6725 8.51653 71.2684 8.0875 71.2684 7.43798V7.43202C71.2684 6.89572 70.9705 6.60373 70.1422 6.40709L69.2066 6.18065C68.0387 5.90058 67.4786 5.38812 67.4786 4.53004V4.52408C67.4786 3.4932 68.3903 2.76025 69.6834 2.76025C71.0062 2.76025 71.8524 3.52895 71.9537 4.59559L71.9597 4.66114H71.2029L71.1969 4.61943C71.0956 3.8984 70.5474 3.42765 69.6834 3.42765C68.8432 3.42765 68.283 3.86265 68.283 4.49429V4.50025C68.283 4.99483 68.6167 5.31066 69.4331 5.5073L70.3686 5.72778C71.6021 6.02572 72.0729 6.50839 72.0729 7.37839V7.38435C72.0729 8.43907 71.0897 9.18393 69.731 9.18393Z" fill="black" fill-opacity="0.65"/>
<path d="M63.4267 9.17791C62.0561 9.17791 61.2397 8.296 61.2397 6.84203V2.87341H62.0323V6.71093C62.0323 7.861 62.6043 8.47476 63.6531 8.47476C64.7376 8.47476 65.4527 7.70011 65.4527 6.54408V2.87341H66.2452V9.07065H65.4527V8.01593H65.4348C65.119 8.68332 64.4277 9.17791 63.4267 9.17791Z" fill="black" fill-opacity="0.65"/>
<path d="M57.6047 9.07071V2.87347H58.3913V3.98778H58.4151C58.6356 3.23101 59.1838 2.76025 59.9347 2.76025C60.1432 2.76025 60.3279 2.80197 60.4233 2.83176V3.60046C60.322 3.55874 60.1015 3.51703 59.8334 3.51703C58.9514 3.51703 58.3913 4.18443 58.3913 5.23319V9.07071H57.6047Z" fill="black" fill-opacity="0.65"/>
<path d="M54.3394 9.07071V1.21095H51.5029V0.472046L57.9981 0.472046V1.21095H55.1557V9.07071H54.3394Z" fill="black" fill-opacity="0.65"/>
<path d="M121.636 29.358V34.284H118.682V29.358H114.083V26.4835H118.682V21.6139H121.636V26.4835H126.235V29.358H121.636Z" fill="#3D3D3D"/>
<path d="M106.09 34.8026C101.998 34.8026 99.5071 31.5449 99.5071 26.2808C99.5071 21.0278 102.021 17.804 106.09 17.804C110.159 17.804 112.662 21.0166 112.662 26.2695C112.662 31.5224 110.182 34.8026 106.09 34.8026ZM106.09 32.0747C108.029 32.0747 109.201 29.9894 109.201 26.2808C109.201 22.606 108.018 20.5319 106.09 20.5319C104.174 20.5319 102.968 22.6172 102.968 26.2808C102.968 29.9781 104.151 32.0747 106.09 32.0747Z" fill="#3D3D3D"/>
<path d="M91.9764 34.8026C87.8845 34.8026 85.3933 31.5449 85.3933 26.2808C85.3933 21.0278 87.907 17.804 91.9764 17.804C96.0457 17.804 98.5481 21.0166 98.5481 26.2695C98.5481 31.5224 96.0682 34.8026 91.9764 34.8026ZM91.9764 32.0747C93.9152 32.0747 95.0875 29.9894 95.0875 26.2808C95.0875 22.606 93.9039 20.5319 91.9764 20.5319C90.0601 20.5319 88.8539 22.6172 88.8539 26.2808C88.8539 29.9781 90.0375 32.0747 91.9764 32.0747Z" fill="#3D3D3D"/>
<path d="M77.8626 34.8026C73.7707 34.8026 71.2795 31.5449 71.2795 26.2808C71.2795 21.0278 73.7933 17.804 77.8626 17.804C81.9319 17.804 84.4344 21.0166 84.4344 26.2695C84.4344 31.5224 81.9544 34.8026 77.8626 34.8026ZM77.8626 32.0747C79.8014 32.0747 80.9738 29.9894 80.9738 26.2808C80.9738 22.606 79.7902 20.5319 77.8626 20.5319C75.9463 20.5319 74.7401 22.6172 74.7401 26.2808C74.7401 29.9781 75.9237 32.0747 77.8626 32.0747Z" fill="#3D3D3D"/>
<path d="M68.6747 38.004H66.2061L67.0515 31.6464H70.1852L68.6747 38.004Z" fill="#3D3D3D"/>
<path d="M59.1485 34.8026C55.0566 34.8026 52.5654 31.5449 52.5654 26.2808C52.5654 21.0278 55.0792 17.804 59.1485 17.804C63.2178 17.804 65.7202 21.0166 65.7202 26.2695C65.7202 31.5224 63.2403 34.8026 59.1485 34.8026ZM59.1485 32.0747C61.0873 32.0747 62.2596 29.9894 62.2596 26.2808C62.2596 22.606 61.076 20.5319 59.1485 20.5319C57.2322 20.5319 56.026 22.6172 56.026 26.2808C56.026 29.9781 57.2096 32.0747 59.1485 32.0747Z" fill="#3D3D3D"/>
<path d="M45.0347 34.8026C40.9428 34.8026 38.4517 31.5449 38.4517 26.2808C38.4517 21.0278 40.9654 17.804 45.0347 17.804C49.104 17.804 51.6065 21.0166 51.6065 26.2695C51.6065 31.5224 49.1266 34.8026 45.0347 34.8026ZM45.0347 32.0747C46.9735 32.0747 48.1459 29.9894 48.1459 26.2808C48.1459 22.606 46.9623 20.5319 45.0347 20.5319C43.1184 20.5319 41.9123 22.6172 41.9123 26.2808C41.9123 29.9781 43.0959 32.0747 45.0347 32.0747Z" fill="#3D3D3D"/>
<path d="M32.5667 34.4419V21.2983H32.4991L28.3508 24.1615V21.0954L32.5554 18.1759H35.9371V34.4419H32.5667Z" fill="#3D3D3D"/>
<path d="M49.6864 45.8204C49.806 45.4525 50.3264 45.4525 50.446 45.8204L51.2634 48.3364C51.3169 48.5009 51.4702 48.6123 51.6432 48.6123H54.2887C54.6755 48.6123 54.8363 49.1073 54.5234 49.3347L52.3832 50.8896C52.2432 50.9913 52.1846 51.1715 52.2381 51.3361L53.0556 53.852C53.1751 54.2199 52.7541 54.5258 52.4411 54.2985L50.3009 52.7435C50.1609 52.6418 49.9714 52.6418 49.8315 52.7435L47.6913 54.2985C47.3783 54.5258 46.9573 54.2199 47.0768 53.852L47.8943 51.3361C47.9477 51.1715 47.8892 50.9913 47.7492 50.8896L45.609 49.3347C45.2961 49.1073 45.4569 48.6123 45.8437 48.6123H48.4892C48.6622 48.6123 48.8155 48.5009 48.8689 48.3364L49.6864 45.8204Z" fill="url(#paint0_linear_13_4140)"/>
<path d="M63.2997 45.8204C63.4192 45.4525 63.9397 45.4525 64.0592 45.8204L64.8767 48.3364C64.9302 48.5009 65.0835 48.6123 65.2565 48.6123H67.9019C68.2888 48.6123 68.4496 49.1073 68.1367 49.3347L65.9964 50.8896C65.8565 50.9913 65.7979 51.1715 65.8514 51.3361L66.6689 53.852C66.7884 54.2199 66.3673 54.5258 66.0544 54.2985L63.9142 52.7435C63.7742 52.6418 63.5847 52.6418 63.4448 52.7435L61.3045 54.2985C60.9916 54.5258 60.5705 54.2199 60.6901 53.852L61.5076 51.3361C61.561 51.1715 61.5025 50.9913 61.3625 50.8896L59.2223 49.3347C58.9093 49.1073 59.0702 48.6123 59.457 48.6123H62.1024C62.2754 48.6123 62.4288 48.5009 62.4822 48.3364L63.2997 45.8204Z" fill="url(#paint1_linear_13_4140)"/>
<path d="M76.9132 45.8204C77.0328 45.4525 77.5532 45.4525 77.6728 45.8204L78.4902 48.3364C78.5437 48.5009 78.697 48.6123 78.87 48.6123H81.5155C81.9023 48.6123 82.0631 49.1073 81.7502 49.3347L79.61 50.8896C79.47 50.9913 79.4114 51.1715 79.4649 51.3361L80.2824 53.852C80.4019 54.2199 79.9809 54.5258 79.6679 54.2985L77.5277 52.7435C77.3878 52.6418 77.1982 52.6418 77.0583 52.7435L74.9181 54.2985C74.6051 54.5258 74.1841 54.2199 74.3036 53.852L75.1211 51.3361C75.1745 51.1715 75.116 50.9913 74.976 50.8896L72.8358 49.3347C72.5229 49.1073 72.6837 48.6123 73.0705 48.6123H75.716C75.889 48.6123 76.0423 48.5009 76.0957 48.3364L76.9132 45.8204Z" fill="url(#paint2_linear_13_4140)"/>
<path d="M90.5263 45.8204C90.6458 45.4525 91.1663 45.4525 91.2858 45.8204L92.1033 48.3364C92.1567 48.5009 92.3101 48.6123 92.4831 48.6123H95.1285C95.5153 48.6123 95.6762 49.1073 95.3632 49.3347L93.223 50.8896C93.083 50.9913 93.0245 51.1715 93.0779 51.3361L93.8954 53.852C94.015 54.2199 93.5939 54.5258 93.281 54.2985L91.1407 52.7435C91.0008 52.6418 90.8113 52.6418 90.6713 52.7435L88.5311 54.2985C88.2182 54.5258 87.7971 54.2199 87.9166 53.852L88.7341 51.3361C88.7876 51.1715 88.729 50.9913 88.5891 50.8896L86.4489 49.3347C86.1359 49.1073 86.2967 48.6123 86.6836 48.6123H89.329C89.502 48.6123 89.6553 48.5009 89.7088 48.3364L90.5263 45.8204Z" fill="url(#paint3_linear_13_4140)"/>
<path d="M104.14 45.8204C104.259 45.4525 104.78 45.4525 104.899 45.8204L105.717 48.3364C105.77 48.5009 105.924 48.6123 106.097 48.6123H108.742C109.129 48.6123 109.29 49.1073 108.977 49.3347L106.837 50.8896C106.697 50.9913 106.638 51.1715 106.691 51.3361L107.509 53.852C107.628 54.2199 107.207 54.5258 106.894 54.2985L104.754 52.7435C104.614 52.6418 104.425 52.6418 104.285 52.7435L102.145 54.2985C101.832 54.5258 101.411 54.2199 101.53 53.852L102.348 51.3361C102.401 51.1715 102.343 50.9913 102.203 50.8896L100.062 49.3347C99.7494 49.1073 99.9103 48.6123 100.297 48.6123H102.943C103.116 48.6123 103.269 48.5009 103.322 48.3364L104.14 45.8204Z" fill="url(#paint4_linear_13_4140)"/>
<defs>
<linearGradient id="paint0_linear_13_4140" x1="50.0662" y1="44.6516" x2="50.0662" y2="56.1155" gradientUnits="userSpaceOnUse">
<stop stop-color="#FFCE0B"/>
<stop offset="1" stop-color="#FFAE00"/>
</linearGradient>
<linearGradient id="paint1_linear_13_4140" x1="63.6795" y1="44.6516" x2="63.6795" y2="56.1155" gradientUnits="userSpaceOnUse">
<stop stop-color="#FFCE0B"/>
<stop offset="1" stop-color="#FFAE00"/>
</linearGradient>
<linearGradient id="paint2_linear_13_4140" x1="77.293" y1="44.6516" x2="77.293" y2="56.1155" gradientUnits="userSpaceOnUse">
<stop stop-color="#FFCE0B"/>
<stop offset="1" stop-color="#FFAE00"/>
</linearGradient>
<linearGradient id="paint3_linear_13_4140" x1="90.906" y1="44.6516" x2="90.906" y2="56.1155" gradientUnits="userSpaceOnUse">
<stop stop-color="#FFCE0B"/>
<stop offset="1" stop-color="#FFAE00"/>
</linearGradient>
<linearGradient id="paint4_linear_13_4140" x1="104.52" y1="44.6516" x2="104.52" y2="56.1155" gradientUnits="userSpaceOnUse">
<stop stop-color="#FFCE0B"/>
<stop offset="1" stop-color="#FFAE00"/>
</linearGradient>
</defs>
</svg>
