<svg width="17" height="16" viewBox="0 0 17 16" fill="none" xmlns="http://www.w3.org/2000/svg">
<path d="M7.56462 0.335672C7.71004 -0.111867 8.34319 -0.111865 8.4886 0.335674L10.0504 5.1425C10.1155 5.34265 10.302 5.47816 10.5124 5.47816H15.5666C16.0372 5.47816 16.2328 6.08032 15.8521 6.35691L11.7632 9.32769C11.593 9.45139 11.5217 9.67065 11.5867 9.8708L13.1486 14.6776C13.294 15.1252 12.7818 15.4973 12.4011 15.2207L8.31214 12.2499C8.14188 12.1262 7.91134 12.1262 7.74109 12.2499L3.65215 15.2207C3.27145 15.4973 2.75923 15.1252 2.90464 14.6776L4.46647 9.8708C4.5315 9.67065 4.46026 9.45139 4.29001 9.32769L0.201076 6.35691C-0.179624 6.08032 0.0160311 5.47816 0.486602 5.47816H5.5408C5.75125 5.47816 5.93776 5.34265 6.00279 5.1425L7.56462 0.335672Z" fill="url(#paint0_linear_13_4126)"/>
<defs>
<linearGradient id="paint0_linear_13_4126" x1="8.02661" y1="-1.08618" x2="8.02661" y2="17.9138" gradientUnits="userSpaceOnUse">
<stop stop-color="#FFCE0B"/>
<stop offset="1" stop-color="#FFAE00"/>
</linearGradient>
</defs>
</svg>
